HIERARCHY
ROOT hip
{
  OFFSET -38.8969 86.1335 94.2241
  CHANNELS 6 Xposition Yposition Zposition Zrotation Xrotation Yrotation
  JOINT abdomen
  {
    OFFSET 0 20.6881 -0.73152
    CHANNELS 3 Zrotation Xrotation Yrotation
    JOINT chest
    {
      OFFSET 0 11.7043 -0.48768
      CHANNELS 3 Zrotation Xrotation Yrotation
      JOINT neck
      {
        OFFSET 0 22.1894 -2.19456
        CHANNELS 3 Zrotation Xrotation Yrotation
        JOINT head
        {
          OFFSET -0.24384 7.07133 1.2192
          CHANNELS 3 Zrotation Xrotation Yrotation
          JOINT leftEye
          {
            OFFSET 4.14528 8.04674 8.04672
            CHANNELS 3 Zrotation Xrotation Yrotation
            End Site
            {
              OFFSET 1 0 0
            }
          }
          JOINT rightEye
          {
            OFFSET -3.6576 8.04674 8.04672
            CHANNELS 3 Zrotation Xrotation Yrotation
            End Site
            {
              OFFSET 1 0 0
            }
          }
        }
      }
      JOINT rCollar
      {
        OFFSET -2.68224 19.2634 -4.8768
        CHANNELS 3 Zrotation Xrotation Yrotation
        JOINT rShldr
        {
          OFFSET -8.77824 -1.95073 1.46304
          CHANNELS 3 Zrotation Xrotation Yrotation
          JOINT rForeArm
          {
            OFFSET -28.1742 -1.7115 0.48768
            CHANNELS 3 Zrotation Xrotation Yrotation
            JOINT rHand
            {
              OFFSET -22.5879 0.773209 7.07136
              CHANNELS 3 Zrotation Xrotation Yrotation
              JOINT rThumb1
              {
                OFFSET -1.2192 -0.487915 3.41376
                CHANNELS 3 Zrotation Xrotation Yrotation
                JOINT rThumb2
                {
                  OFFSET -3.37035 -0.52449 3.41376
                  CHANNELS 3 Zrotation Xrotation Yrotation
                  End Site
                  {
                    OFFSET -1.78271 -1.18214 1.43049
                  }
                }
              }
              JOINT rIndex1
              {
                OFFSET -7.75947 0.938293 5.60832
                CHANNELS 3 Zrotation Xrotation Yrotation
                JOINT rIndex2
                {
                  OFFSET -2.54057 -0.884171 1.56538
                  CHANNELS 3 Zrotation Xrotation Yrotation
                  End Site
                  {
                    OFFSET -1.62519 -0.234802 1.16502
                  }
                }
              }
              JOINT rMid1
              {
                OFFSET -8.24714 1.18213 3.41376
                CHANNELS 3 Zrotation Xrotation Yrotation
                JOINT rMid2
                {
                  OFFSET -3.10165 -0.590103 1.0647
                  CHANNELS 3 Zrotation Xrotation Yrotation
                  End Site
                  {
                    OFFSET -2.48547 -0.328903 0.83742
                  }
                }
              }
              JOINT rRing1
              {
                OFFSET -8.82822 0.546677 1.51678
                CHANNELS 3 Zrotation Xrotation Yrotation
                JOINT rRing2
                {
                  OFFSET -2.60934 -0.819778 -0.0198488
                  CHANNELS 3 Zrotation Xrotation Yrotation
                  End Site
                  {
                    OFFSET -2.33842 -0.294052 0.168128
                  }
                }
              }
              JOINT rPinky1
              {
                OFFSET -8.27202 -0.0477905 -0.4584
                CHANNELS 3 Zrotation Xrotation Yrotation
                JOINT rPinky2
                {
                  OFFSET -1.82734 -0.647385 -0.700984
                  CHANNELS 3 Zrotation Xrotation Yrotation
                  End Site
                  {
                    OFFSET -1.69225 -0.51767 -0.607171
                  }
                }
              }
            }
          }
        }
      }
      JOINT lCollar
      {
        OFFSET 2.68224 19.2634 -4.8768
        CHANNELS 3 Zrotation Xrotation Yrotation
        JOINT lShldr
        {
          OFFSET 8.77824 -1.95073 1.46304
          CHANNELS 3 Zrotation Xrotation Yrotation
          JOINT lForeArm
          {
            OFFSET 28.1742 -1.7115 0.48768
            CHANNELS 3 Zrotation Xrotation Yrotation
            JOINT lHand
            {
              OFFSET 22.5879 0.773209 7.07136
              CHANNELS 3 Zrotation Xrotation Yrotation
              JOINT lThumb1
              {
                OFFSET 1.2192 -0.487915 3.41376
                CHANNELS 3 Zrotation Xrotation Yrotation
                JOINT lThumb2
                {
                  OFFSET 3.37035 -0.52449 3.41376
                  CHANNELS 3 Zrotation Xrotation Yrotation
                  End Site
                  {
                    OFFSET 1.78271 -1.18214 1.43049
                  }
                }
              }
              JOINT lIndex1
              {
                OFFSET 7.75947 0.938293 5.60832
                CHANNELS 3 Zrotation Xrotation Yrotation
                JOINT lIndex2
                {
                  OFFSET 2.54057 -0.884171 1.56538
                  CHANNELS 3 Zrotation Xrotation Yrotation
                  End Site
                  {
                    OFFSET 1.62519 -0.234802 1.16502
                  }
                }
              }
              JOINT lMid1
              {
                OFFSET 8.24714 1.18213 3.41376
                CHANNELS 3 Zrotation Xrotation Yrotation
                JOINT lMid2
                {
                  OFFSET 3.10165 -0.590103 1.0647
                  CHANNELS 3 Zrotation Xrotation Yrotation
                  End Site
                  {
                    OFFSET 2.48547 -0.328903 0.83742
                  }
                }
              }
              JOINT lRing1
              {
                OFFSET 8.82822 0.546677 1.51678
                CHANNELS 3 Zrotation Xrotation Yrotation
                JOINT lRing2
                {
                  OFFSET 2.60934 -0.819778 -0.0198488
                  CHANNELS 3 Zrotation Xrotation Yrotation
                  End Site
                  {
                    OFFSET 2.33842 -0.294052 0.168128
                  }
                }
              }
              JOINT lPinky1
              {
                OFFSET 8.27202 -0.0477905 -0.4584
                CHANNELS 3 Zrotation Xrotation Yrotation
                JOINT lPinky2
                {
                  OFFSET 1.82734 -0.647385 -0.700984
                  CHANNELS 3 Zrotation Xrotation Yrotation
                  End Site
                  {
                    OFFSET 1.69225 -0.51767 -0.607171
                  }
                }
              }
            }
          }
        }
      }
    }
  }
  JOINT rButtock
  {
    OFFSET -8.77824 4.35084 1.2192
    CHANNELS 3 Zrotation Xrotation Yrotation
    JOINT rThigh
    {
      OFFSET 0 -1.70687 -2.19456
      CHANNELS 3 Zrotation Xrotation Yrotation
      JOINT rShin
      {
        OFFSET 0 -36.8199 0.73152
        CHANNELS 3 Zrotation Xrotation Yrotation
        JOINT rFoot
        {
          OFFSET 0.73152 -45.1104 -5.12064
          CHANNELS 3 Zrotation Xrotation Yrotation
          End Site
          {
            OFFSET -1.1221 -3.69964 12.103
          }
        }
      }
    }
  }
  JOINT lButtock
  {
    OFFSET 8.77824 4.35084 1.2192
    CHANNELS 3 Zrotation Xrotation Yrotation
    JOINT lThigh
    {
      OFFSET 0 -1.70687 -2.19456
      CHANNELS 3 Zrotation Xrotation Yrotation
      JOINT lShin
      {
        OFFSET 0 -36.8199 0.73152
        CHANNELS 3 Zrotation Xrotation Yrotation
        JOINT lFoot
        {
          OFFSET -0.73152 -45.1104 -5.12064
          CHANNELS 3 Zrotation Xrotation Yrotation
          End Site
          {
            OFFSET 1.1221 -3.69964 12.103
          }
        }
      }
    }
  }
}
MOTION
Frames:	4
Frame Time:	0.00833333
-48.8636 86.6775 -55.6505 14.0981 4.21512 -24.2882 14.1311 -2.16767 10.0203 -5.98576 -5.46885 2.46287 -26.3493 37.9979 -10.7446 58.0387 -26.198 -17.6389 -0 0 0 -0 0 0 -9.10463e-014 1.96791e-014 3.98776e-013 71.2515 12.8378 2.40302 -13.2794 -6.38751 24.1153 -0.655453 22.3639 3.31487 -3.91019e-009 -1.25002e-009 1.33277e-009 -6.72994e-009 -2.30808e-009 2.37724e-009 -3.91019e-009 -1.25002e-009 1.33276e-009 7.73091 5.47488 0.417314 -3.91019e-009 -1.25001e-009 1.33277e-009 2.90554 0.965183 0.102902 -3.91018e-009 -1.25002e-009 1.33277e-009 10.2786 0.731801 0.0259123 -3.91019e-009 -1.25002e-009 1.33277e-009 2.22167 -0.733487 -0.20892 -9.10414e-014 1.96789e-014 3.9844e-013 -83.8861 24.4276 16.2799 19.6734 -12.6064 -37.8933 2.67739 -41.3094 7.09468 1.15531e-009 -1.51976e-011 6.69748e-010 1.96059e-009 -5.91584e-011 1.19798e-009 1.15531e-009 -1.51903e-011 6.69749e-010 -7.73091 5.47488 -0.417314 1.15531e-009 -1.51912e-011 6.6975e-010 -2.90554 0.965183 -0.102902 1.1553e-009 -1.51899e-011 6.69748e-010 -10.2786 0.731801 -0.0259123 1.15531e-009 -1.51942e-011 6.69741e-010 -2.22167 -0.733487 0.20892 -2.03217e-016 0 -3.88251e-019 9.76312 -13.978 -4.6639 -0.0204213 25.703 0.739184 4.70503 -19.9929 12.7028 2.03217e-016 0 3.88251e-019 12.895 -48.9224 13.3725 0.305389 39.0042 -0.807538 1.32775 -7.34355 4.96164 
-48.6349 86.7378 -55.0944 14.1323 4.2478 -24.4067 14.0929 -2.22802 10.0811 -5.99142 -5.43808 2.47893 -26.3235 37.9997 -10.7694 58.0315 -26.1846 -17.6814 -0 0 0 -0 0 0 -1.45051e-013 3.84321e-014 5.5201e-013 71.2551 12.9497 2.65242 -13.3186 -6.41757 24.193 -0.655213 22.36 3.31424 -3.88286e-009 -2.14692e-009 1.71888e-009 -6.67377e-009 -3.8602e-009 3.04263e-009 -3.88286e-009 -2.14693e-009 1.71887e-009 7.73091 5.47488 0.417314 -3.88286e-009 -2.14691e-009 1.71888e-009 2.90554 0.965183 0.102902 -3.88286e-009 -2.14692e-009 1.71888e-009 10.2786 0.731801 0.0259123 -3.88286e-009 -2.14692e-009 1.71889e-009 2.22167 -0.733487 -0.20892 -1.45063e-013 3.84327e-014 5.51702e-013 -84.0013 24.5341 16.239 19.6518 -12.5798 -37.842 2.66602 -41.2406 7.07742 1.4762e-009 8.16615e-011 5.44826e-010 2.51551e-009 1.03425e-010 9.93164e-010 1.4762e-009 8.16672e-011 5.44831e-010 -7.73091 5.47488 -0.417314 1.4762e-009 8.16672e-011 5.44832e-010 -2.90554 0.965183 -0.102902 1.47619e-009 8.16691e-011 5.44827e-010 -10.2786 0.731801 -0.0259123 1.4762e-009 8.16673e-011 5.4482e-010 -2.22167 -0.733487 0.20892 -2.03217e-016 0 -3.88251e-019 9.85783 -13.1973 -4.59642 -0.0134385 24.9017 0.722254 4.61374 -19.8763 12.5297 2.03217e-016 0 3.88251e-019 13.0187 -48.885 13.4861 0.276207 37.3458 -0.765895 1.39631 -7.393 5.33349 
-48.4004 86.7925 -54.5348 14.1669 4.28263 -24.5016 14.0529 -2.28928 10.1541 -5.99673 -5.41349 2.4986 -26.2975 37.9996 -10.7921 58.0179 -26.163 -17.7246 -0 0 0 -0 0 0 -1.95516e-013 6.30657e-014 6.74228e-013 71.2901 13.0439 2.87553 -13.3617 -6.45075 24.2785 -0.65493 22.3555 3.3135 -3.52998e-009 -3.09459e-009 2.06802e-009 -6.05581e-009 -5.48821e-009 3.63799e-009 -3.52998e-009 -3.0946e-009 2.06801e-009 7.73091 5.47488 0.417314 -3.52998e-009 -3.09459e-009 2.06802e-009 2.90554 0.965183 0.102902 -3.52997e-009 -3.09459e-009 2.06802e-009 10.2786 0.731801 0.0259123 -3.52998e-009 -3.09459e-009 2.06802e-009 2.22167 -0.733487 -0.20892 -1.95541e-013 6.30667e-014 6.73954e-013 -84.1027 24.643 16.2048 19.6153 -12.5352 -37.7548 2.65436 -41.1699 7.05974 1.74954e-009 1.94291e-010 3.35969e-010 2.99178e-009 2.9541e-010 6.41758e-010 1.74954e-009 1.94295e-010 3.35977e-010 -7.73091 5.47488 -0.417314 1.74954e-009 1.94296e-010 3.35977e-010 -2.90554 0.965183 -0.102902 1.74953e-009 1.94298e-010 3.35969e-010 -10.2786 0.731801 -0.0259123 1.74954e-009 1.94299e-010 3.35963e-010 -2.22167 -0.733487 0.20892 -2.03217e-016 0 -3.88251e-019 9.95079 -12.4077 -4.50986 -0.00690353 24.0861 0.704736 4.52863 -19.737 12.3856 2.03217e-016 0 3.88251e-019 13.1621 -48.8282 13.6052 0.250557 35.7503 -0.727892 1.48361 -7.44086 5.78919 
-48.1622 86.8437 -53.9697 14.2084 4.3281 -24.5744 14.0177 -2.36789 10.2465 -6.00787 -5.39128 2.52302 -26.2636 37.995 -10.8155 57.9888 -26.1327 -17.7717 -0 0 0 -0 0 0 -2.19878e-013 5.82556e-014 6.3631e-013 71.363 13.1146 3.06326 -13.4088 -6.48718 24.372 -0.654868 22.3545 3.31333 -2.63669e-009 -3.83315e-009 2.3724e-009 -4.50685e-009 -6.7344e-009 4.14609e-009 -2.63669e-009 -3.83316e-009 2.37239e-009 7.73091 5.47488 0.417314 -2.63669e-009 -3.83314e-009 2.3724e-009 2.90554 0.965183 0.102902 -2.63668e-009 -3.83314e-009 2.37241e-009 10.2786 0.731801 0.0259123 -2.63669e-009 -3.83314e-009 2.37241e-009 2.22167 -0.733487 -0.20892 -2.19898e-013 5.82565e-014 6.36061e-013 -84.186 24.7567 16.1814 19.5656 -12.4751 -37.6356 2.64084 -41.0877 7.03919 1.69561e-009 2.86635e-010 -1.51649e-011 2.90981e-009 4.58569e-010 3.31271e-011 1.69561e-009 2.86638e-010 -1.51553e-011 -7.73091 5.47488 -0.417314 1.69561e-009 2.86639e-010 -1.51553e-011 -2.90554 0.965183 -0.102902 1.69559e-009 2.86641e-010 -1.51649e-011 -10.2786 0.731801 -0.0259123 1.69561e-009 2.86644e-010 -1.51712e-011 -2.22167 -0.733487 0.20892 -2.03217e-016 0 -3.88251e-019 10.0398 -11.6224 -4.40967 -0.00110229 23.2643 0.687808 4.45358 -19.5775 12.2793 2.03217e-016 0 3.88251e-019 13.3268 -48.7766 13.7292 0.228455 34.2524 -0.694553 1.58454 -7.50343 6.30127 
